# xmcd CD database file
#
# Track frame offsets:
#	150
#	18305
#	35215
#	50372
#	63825
#	81162
#	96367
#	115855
#	127670
#	135387
#	142382
#	149547
#	156812
#	165312
#	173612
#	181300
#	189292
#	196917
#	204820
#	212617
#	219817
#	227630
#	235270
#	243132
#	249012
#	254357
#	260930
#
# Disc length: 3584 seconds
#
# Revision: 0
# Processed by: cddbd v1.5.2PL0 Copyright (c) Steve Scherf et al.
# Submitted via: CDex 1.51
#
DISCID=6e0dfe1b
DTITLE=中日ドラゴンズ - 炎の応援歌 2002
DYEAR=2000
DGENRE=応援歌
TTITLE0=21世紀の翼
TTITLE1=嵐の英雄
TTITLE2=いざ行け強竜ドラゴンズ
TTITLE3=星野仙一監督応援歌
TTITLE4=いけいけドラゴンズ
TTITLE5=やったれ！中日ドラゴンズ
TTITLE6=大東海に陽は昇る
TTITLE7=勝利の叫び
TTITLE8=ディンゴ選手のテーマ
TTITLE9=渡辺博幸選手のテーマ
TTITLE10=大西崇之選手のテーマ
TTITLE11=井上一樹選手のテーマ
TTITLE12=李鍾範選手のテーマ
TTITLE13=福留孝介選手のテーマ
TTITLE14=久慈照嘉選手のテーマ
TTITLE15=関川浩一選手のテーマ
TTITLE16=レオ･ゴメス選手のテーマ
TTITLE17=山崎武司選手のテーマ
TTITLE18=神野純一選手のテーマ
TTITLE19=中村武志選手のテーマ
TTITLE20=立浪和義選手のテーマ
TTITLE21=種田仁選手のテーマ
TTITLE22=益田大介選手のテーマ
TTITLE23=投手のテーマ
TTITLE24=ガッツだドラゴンズのテーマ
TTITLE25=ドラゴンズマーチ
TTITLE26=チャンスのテーマ
EXTD=YEAR: 2000
EXTT0=
EXTT1=
EXTT2=
EXTT3=
EXTT4=
EXTT5=
EXTT6=
EXTT7=
EXTT8=
EXTT9=
EXTT10=
EXTT11=
EXTT12=
EXTT13=
EXTT14=
EXTT15=
EXTT16=
EXTT17=
EXTT18=
EXTT19=
EXTT20=
EXTT21=
EXTT22=
EXTT23=
EXTT24=
EXTT25=
EXTT26=
PLAYORDER=
